<mxfile host="2c2c4a91-b6a0-42d2-bbf6-0fecbdbf23a9" modified="2020-08-29T18:34:25.215Z" agent="5.0 (Windows NT 10.0; Win64; x64) AppleWebKit/537.36 (KHTML, like Gecko) Code/1.48.2 Chrome/78.0.3904.130 Electron/7.3.2 Safari/537.36" etag="-zLBZHuLAiD1DXm1h0BA" version="13.6.5">
    <diagram id="C5RBs43oDa-KdzZeNtuy" name="Page-1">
        <mxGraphModel dx="992" dy="577" grid="1" gridSize="10" guides="1" tooltips="1" connect="1" arrows="1" fold="1" page="1" pageScale="1" pageWidth="827" pageHeight="1169" math="0" shadow="0">
            <root>
                <mxCell id="WIyWlLk6GJQsqaUBKTNV-0"/>
                <mxCell id="WIyWlLk6GJQsqaUBKTNV-1" parent="WIyWlLk6GJQsqaUBKTNV-0"/>
                <mxCell id="lEEZqcg1sSEO5rBI1pHS-0" value="" style="rounded=1;whiteSpace=wrap;html=1;arcSize=3;" parent="WIyWlLk6GJQsqaUBKTNV-1" vertex="1">
                    <mxGeometry x="100" y="170" width="700" height="510" as="geometry"/>
                </mxCell>
                <mxCell id="lEEZqcg1sSEO5rBI1pHS-20" value="" style="rounded=1;whiteSpace=wrap;html=1;arcSize=6;" parent="WIyWlLk6GJQsqaUBKTNV-1" vertex="1">
                    <mxGeometry x="570" y="205" width="190" height="405" as="geometry"/>
                </mxCell>
                <mxCell id="lEEZqcg1sSEO5rBI1pHS-1" value="&lt;b&gt;&lt;font style=&quot;font-size: 22px&quot;&gt;COVID 19 TRACKER&lt;/font&gt;&lt;/b&gt;" style="text;html=1;strokeColor=none;fillColor=none;align=center;verticalAlign=middle;whiteSpace=wrap;rounded=0;" parent="WIyWlLk6GJQsqaUBKTNV-1" vertex="1">
                    <mxGeometry x="140" y="210" width="220" height="20" as="geometry"/>
                </mxCell>
                <mxCell id="lEEZqcg1sSEO5rBI1pHS-2" value="&lt;b&gt;Worldwide&lt;/b&gt;" style="rounded=1;whiteSpace=wrap;html=1;" parent="WIyWlLk6GJQsqaUBKTNV-1" vertex="1">
                    <mxGeometry x="400" y="205" width="130" height="30" as="geometry"/>
                </mxCell>
                <mxCell id="lEEZqcg1sSEO5rBI1pHS-3" value="" style="rounded=1;whiteSpace=wrap;html=1;" parent="WIyWlLk6GJQsqaUBKTNV-1" vertex="1">
                    <mxGeometry x="140" y="260" width="120" height="60" as="geometry"/>
                </mxCell>
                <mxCell id="lEEZqcg1sSEO5rBI1pHS-4" value="&lt;b&gt;Coronavirus cases&lt;/b&gt;" style="text;html=1;strokeColor=none;fillColor=none;align=center;verticalAlign=middle;whiteSpace=wrap;rounded=0;" parent="WIyWlLk6GJQsqaUBKTNV-1" vertex="1">
                    <mxGeometry x="140" y="260" width="120" height="20" as="geometry"/>
                </mxCell>
                <mxCell id="lEEZqcg1sSEO5rBI1pHS-5" value="&lt;b&gt;+2000&lt;/b&gt;" style="text;html=1;strokeColor=none;fillColor=none;align=left;verticalAlign=middle;whiteSpace=wrap;rounded=0;" parent="WIyWlLk6GJQsqaUBKTNV-1" vertex="1">
                    <mxGeometry x="150" y="280" width="90" height="20" as="geometry"/>
                </mxCell>
                <mxCell id="lEEZqcg1sSEO5rBI1pHS-6" value="&lt;b&gt;1.2 M total&lt;/b&gt;" style="text;html=1;strokeColor=none;fillColor=none;align=left;verticalAlign=middle;whiteSpace=wrap;rounded=0;" parent="WIyWlLk6GJQsqaUBKTNV-1" vertex="1">
                    <mxGeometry x="150" y="300" width="110" height="20" as="geometry"/>
                </mxCell>
                <mxCell id="lEEZqcg1sSEO5rBI1pHS-10" value="" style="rounded=1;whiteSpace=wrap;html=1;" parent="WIyWlLk6GJQsqaUBKTNV-1" vertex="1">
                    <mxGeometry x="280" y="260" width="120" height="60" as="geometry"/>
                </mxCell>
                <mxCell id="lEEZqcg1sSEO5rBI1pHS-11" value="&lt;b&gt;Recovered&lt;/b&gt;" style="text;html=1;strokeColor=none;fillColor=none;align=left;verticalAlign=middle;whiteSpace=wrap;rounded=0;" parent="WIyWlLk6GJQsqaUBKTNV-1" vertex="1">
                    <mxGeometry x="280" y="260" width="120" height="20" as="geometry"/>
                </mxCell>
                <mxCell id="lEEZqcg1sSEO5rBI1pHS-12" value="&lt;b&gt;+2000&lt;/b&gt;" style="text;html=1;strokeColor=none;fillColor=none;align=left;verticalAlign=middle;whiteSpace=wrap;rounded=0;" parent="WIyWlLk6GJQsqaUBKTNV-1" vertex="1">
                    <mxGeometry x="290" y="280" width="90" height="20" as="geometry"/>
                </mxCell>
                <mxCell id="lEEZqcg1sSEO5rBI1pHS-13" value="&lt;b&gt;1.2 M total&lt;/b&gt;" style="text;html=1;strokeColor=none;fillColor=none;align=left;verticalAlign=middle;whiteSpace=wrap;rounded=0;" parent="WIyWlLk6GJQsqaUBKTNV-1" vertex="1">
                    <mxGeometry x="290" y="300" width="110" height="20" as="geometry"/>
                </mxCell>
                <mxCell id="lEEZqcg1sSEO5rBI1pHS-14" value="" style="rounded=1;whiteSpace=wrap;html=1;" parent="WIyWlLk6GJQsqaUBKTNV-1" vertex="1">
                    <mxGeometry x="414" y="260" width="120" height="60" as="geometry"/>
                </mxCell>
                <mxCell id="lEEZqcg1sSEO5rBI1pHS-15" value="&lt;b&gt;Deaths&lt;/b&gt;" style="text;html=1;strokeColor=none;fillColor=none;align=left;verticalAlign=middle;whiteSpace=wrap;rounded=0;" parent="WIyWlLk6GJQsqaUBKTNV-1" vertex="1">
                    <mxGeometry x="414" y="260" width="120" height="20" as="geometry"/>
                </mxCell>
                <mxCell id="lEEZqcg1sSEO5rBI1pHS-16" value="&lt;b&gt;+2000&lt;/b&gt;" style="text;html=1;strokeColor=none;fillColor=none;align=left;verticalAlign=middle;whiteSpace=wrap;rounded=0;" parent="WIyWlLk6GJQsqaUBKTNV-1" vertex="1">
                    <mxGeometry x="424" y="280" width="90" height="20" as="geometry"/>
                </mxCell>
                <mxCell id="lEEZqcg1sSEO5rBI1pHS-17" value="&lt;b&gt;1.2 M total&lt;/b&gt;" style="text;html=1;strokeColor=none;fillColor=none;align=left;verticalAlign=middle;whiteSpace=wrap;rounded=0;" parent="WIyWlLk6GJQsqaUBKTNV-1" vertex="1">
                    <mxGeometry x="424" y="300" width="110" height="20" as="geometry"/>
                </mxCell>
                <mxCell id="lEEZqcg1sSEO5rBI1pHS-18" value="" style="rounded=1;whiteSpace=wrap;html=1;arcSize=3;" parent="WIyWlLk6GJQsqaUBKTNV-1" vertex="1">
                    <mxGeometry x="140" y="340" width="400" height="270" as="geometry"/>
                </mxCell>
                <mxCell id="lEEZqcg1sSEO5rBI1pHS-19" value="" style="shape=image;html=1;verticalAlign=top;verticalLabelPosition=bottom;labelBackgroundColor=#ffffff;imageAspect=0;aspect=fixed;image=https://cdn4.iconfinder.com/data/icons/small-n-flat/24/map-128.png;rounded=1;" parent="WIyWlLk6GJQsqaUBKTNV-1" vertex="1">
                    <mxGeometry x="276" y="411" width="128" height="128" as="geometry"/>
                </mxCell>
                <mxCell id="lEEZqcg1sSEO5rBI1pHS-21" value="&lt;b&gt;Cases by country&lt;/b&gt;" style="text;html=1;strokeColor=none;fillColor=none;align=center;verticalAlign=middle;whiteSpace=wrap;rounded=0;" parent="WIyWlLk6GJQsqaUBKTNV-1" vertex="1">
                    <mxGeometry x="580" y="210" width="130" height="20" as="geometry"/>
                </mxCell>
                <mxCell id="lEEZqcg1sSEO5rBI1pHS-22" value="&lt;b&gt;Worldwie New Cases&lt;/b&gt;" style="text;html=1;strokeColor=none;fillColor=none;align=center;verticalAlign=middle;whiteSpace=wrap;rounded=0;" parent="WIyWlLk6GJQsqaUBKTNV-1" vertex="1">
                    <mxGeometry x="580" y="440" width="150" height="20" as="geometry"/>
                </mxCell>
                <mxCell id="lEEZqcg1sSEO5rBI1pHS-55" value="" style="fillColor=#10739E;strokeColor=none;rounded=1;" parent="WIyWlLk6GJQsqaUBKTNV-1" vertex="1">
                    <mxGeometry x="580" y="500" width="30" height="100" as="geometry"/>
                </mxCell>
                <mxCell id="lEEZqcg1sSEO5rBI1pHS-56" value="" style="shape=mxgraph.arrows2.arrow;dy=0.4;dx=16;notch=0;direction=north;fillColor=#1699D3;strokeColor=none;" parent="lEEZqcg1sSEO5rBI1pHS-55" vertex="1">
                    <mxGeometry x="3" y="30" width="24" height="70" as="geometry"/>
                </mxCell>
                <mxCell id="lEEZqcg1sSEO5rBI1pHS-57" value="Label" style="text;html=1;align=center;verticalAlign=middle;whiteSpace=wrap;fontColor=#FFFFFF;fontSize=10;" parent="lEEZqcg1sSEO5rBI1pHS-55" vertex="1">
                    <mxGeometry width="30" height="20" as="geometry"/>
                </mxCell>
                <mxCell id="lEEZqcg1sSEO5rBI1pHS-58" value="" style="fillColor=#F2931E;strokeColor=none;rounded=1;" parent="WIyWlLk6GJQsqaUBKTNV-1" vertex="1">
                    <mxGeometry x="615" y="480" width="30" height="120" as="geometry"/>
                </mxCell>
                <mxCell id="lEEZqcg1sSEO5rBI1pHS-59" value="" style="shape=mxgraph.arrows2.arrow;dy=0.4;dx=16;notch=0;direction=south;fillColor=#F5AB50;strokeColor=none;" parent="lEEZqcg1sSEO5rBI1pHS-58" vertex="1">
                    <mxGeometry x="3" width="24" height="80" as="geometry"/>
                </mxCell>
                <mxCell id="lEEZqcg1sSEO5rBI1pHS-60" value="Label" style="text;html=1;align=center;verticalAlign=middle;whiteSpace=wrap;fontColor=#FFFFFF;fontSize=10;" parent="lEEZqcg1sSEO5rBI1pHS-58" vertex="1">
                    <mxGeometry width="30" height="20" as="geometry"/>
                </mxCell>
                <mxCell id="lEEZqcg1sSEO5rBI1pHS-61" value="" style="fillColor=#AE4132;strokeColor=none;rounded=1;" parent="WIyWlLk6GJQsqaUBKTNV-1" vertex="1">
                    <mxGeometry x="650" y="470" width="30" height="130" as="geometry"/>
                </mxCell>
                <mxCell id="lEEZqcg1sSEO5rBI1pHS-62" value="" style="shape=mxgraph.arrows2.arrow;dy=0.4;dx=16;notch=0;direction=north;fillColor=#E85642;strokeColor=none;" parent="lEEZqcg1sSEO5rBI1pHS-61" vertex="1">
                    <mxGeometry x="3" y="80" width="24" height="50" as="geometry"/>
                </mxCell>
                <mxCell id="lEEZqcg1sSEO5rBI1pHS-63" value="Label" style="text;html=1;align=center;verticalAlign=middle;whiteSpace=wrap;fontColor=#FFFFFF;fontSize=10;" parent="lEEZqcg1sSEO5rBI1pHS-61" vertex="1">
                    <mxGeometry width="30" height="20" as="geometry"/>
                </mxCell>
                <mxCell id="lEEZqcg1sSEO5rBI1pHS-64" value="" style="fillColor=#12AAB5;strokeColor=none;rounded=1;" parent="WIyWlLk6GJQsqaUBKTNV-1" vertex="1">
                    <mxGeometry x="685" y="520" width="30" height="80" as="geometry"/>
                </mxCell>
                <mxCell id="lEEZqcg1sSEO5rBI1pHS-65" value="" style="shape=mxgraph.arrows2.arrow;dy=0.4;dx=16;notch=0;direction=south;fillColor=#64BBE2;strokeColor=none;" parent="lEEZqcg1sSEO5rBI1pHS-64" vertex="1">
                    <mxGeometry x="3" width="24" height="30" as="geometry"/>
                </mxCell>
                <mxCell id="lEEZqcg1sSEO5rBI1pHS-66" value="Label" style="text;html=1;align=center;verticalAlign=middle;whiteSpace=wrap;fontColor=#FFFFFF;fontSize=10;" parent="lEEZqcg1sSEO5rBI1pHS-64" vertex="1">
                    <mxGeometry width="30" height="20" as="geometry"/>
                </mxCell>
                <mxCell id="lEEZqcg1sSEO5rBI1pHS-67" value="" style="fillColor=#23445D;strokeColor=none;rounded=1;" parent="WIyWlLk6GJQsqaUBKTNV-1" vertex="1">
                    <mxGeometry x="720" y="530" width="30" height="70" as="geometry"/>
                </mxCell>
                <mxCell id="lEEZqcg1sSEO5rBI1pHS-68" value="" style="shape=mxgraph.arrows2.arrow;dy=0.4;dx=16;notch=0;direction=north;fillColor=#2F5B7C;strokeColor=none;" parent="lEEZqcg1sSEO5rBI1pHS-67" vertex="1">
                    <mxGeometry x="3" y="10" width="24" height="60" as="geometry"/>
                </mxCell>
                <mxCell id="lEEZqcg1sSEO5rBI1pHS-69" value="Label" style="text;html=1;align=center;verticalAlign=middle;whiteSpace=wrap;fontColor=#FFFFFF;fontSize=10;" parent="lEEZqcg1sSEO5rBI1pHS-67" vertex="1">
                    <mxGeometry width="30" height="20" as="geometry"/>
                </mxCell>
                <mxCell id="lEEZqcg1sSEO5rBI1pHS-71" value="&lt;table border=&quot;0&quot; width=&quot;100%&quot; height=&quot;100%&quot; style=&quot;width:100%;height:100%;border-collapse:collapse;&quot;&gt;&lt;tr&gt;&lt;td align=&quot;center&quot;&gt;Value 1&lt;/td&gt;&lt;td align=&quot;center&quot;&gt;Value 2&lt;/td&gt;&lt;td align=&quot;center&quot;&gt;Value 3&lt;/td&gt;&lt;/tr&gt;&lt;tr&gt;&lt;td align=&quot;center&quot;&gt;Value 4&lt;/td&gt;&lt;td align=&quot;center&quot;&gt;Value 5&lt;/td&gt;&lt;td align=&quot;center&quot;&gt;Value 6&lt;/td&gt;&lt;/tr&gt;&lt;tr&gt;&lt;td align=&quot;center&quot;&gt;Value 7&lt;/td&gt;&lt;td align=&quot;center&quot;&gt;Value 8&lt;/td&gt;&lt;td align=&quot;center&quot;&gt;Value 9&lt;/td&gt;&lt;/tr&gt;&lt;/table&gt;" style="text;html=1;strokeColor=#141414;fillColor=none;overflow=fill;rounded=1;arcSize=6;strokeWidth=1;" parent="WIyWlLk6GJQsqaUBKTNV-1" vertex="1">
                    <mxGeometry x="577.5" y="250" width="175" height="180" as="geometry"/>
                </mxCell>
            </root>
        </mxGraphModel>
    </diagram>
</mxfile>